<mxfile host="app.diagrams.net" agent="Mozilla/5.0 (Windows NT 10.0; Win64; x64) AppleWebKit/537.36 (KHTML, like Gecko) Chrome/138.0.0.0 Safari/537.36" version="28.0.7">
  <diagram name="Page-1" id="kwGFcW0rNjlYf9ET6r4X">
    <mxGraphModel dx="1426" dy="743" grid="1" gridSize="10" guides="1" tooltips="1" connect="1" arrows="1" fold="1" page="1" pageScale="1" pageWidth="850" pageHeight="1100" math="0" shadow="0">
      <root>
        <mxCell id="0" />
        <mxCell id="1" parent="0" />
        <mxCell id="mrRy50-UUVqDzoAHUifa-51" style="edgeStyle=orthogonalEdgeStyle;rounded=0;orthogonalLoop=1;jettySize=auto;html=1;exitX=0.25;exitY=1;exitDx=0;exitDy=0;entryX=0.5;entryY=0;entryDx=0;entryDy=0;endArrow=none;endFill=0;" edge="1" parent="1" source="mrRy50-UUVqDzoAHUifa-1" target="mrRy50-UUVqDzoAHUifa-16">
          <mxGeometry relative="1" as="geometry">
            <Array as="points">
              <mxPoint x="70" y="460" />
              <mxPoint x="70" y="480" />
            </Array>
          </mxGeometry>
        </mxCell>
        <mxCell id="mrRy50-UUVqDzoAHUifa-52" style="edgeStyle=orthogonalEdgeStyle;rounded=0;orthogonalLoop=1;jettySize=auto;html=1;entryX=0.5;entryY=0;entryDx=0;entryDy=0;endArrow=none;endFill=0;" edge="1" parent="1" source="mrRy50-UUVqDzoAHUifa-1" target="mrRy50-UUVqDzoAHUifa-13">
          <mxGeometry relative="1" as="geometry">
            <Array as="points">
              <mxPoint x="100" y="470" />
              <mxPoint x="205" y="470" />
            </Array>
          </mxGeometry>
        </mxCell>
        <mxCell id="mrRy50-UUVqDzoAHUifa-53" style="edgeStyle=orthogonalEdgeStyle;rounded=0;orthogonalLoop=1;jettySize=auto;html=1;exitX=0.75;exitY=1;exitDx=0;exitDy=0;entryX=0.5;entryY=0;entryDx=0;entryDy=0;endArrow=none;endFill=0;" edge="1" parent="1" source="mrRy50-UUVqDzoAHUifa-1" target="mrRy50-UUVqDzoAHUifa-15">
          <mxGeometry relative="1" as="geometry">
            <Array as="points">
              <mxPoint x="285" y="460" />
            </Array>
          </mxGeometry>
        </mxCell>
        <mxCell id="mrRy50-UUVqDzoAHUifa-1" value="Product" style="rounded=0;whiteSpace=wrap;html=1;" vertex="1" parent="1">
          <mxGeometry x="39" y="400" width="120" height="60" as="geometry" />
        </mxCell>
        <mxCell id="mrRy50-UUVqDzoAHUifa-46" style="edgeStyle=orthogonalEdgeStyle;rounded=0;orthogonalLoop=1;jettySize=auto;html=1;exitX=1;exitY=0;exitDx=0;exitDy=0;entryX=0.5;entryY=1;entryDx=0;entryDy=0;endArrow=none;endFill=0;" edge="1" parent="1" source="mrRy50-UUVqDzoAHUifa-3" target="mrRy50-UUVqDzoAHUifa-23">
          <mxGeometry relative="1" as="geometry" />
        </mxCell>
        <mxCell id="mrRy50-UUVqDzoAHUifa-47" style="edgeStyle=orthogonalEdgeStyle;rounded=0;orthogonalLoop=1;jettySize=auto;html=1;exitX=0.75;exitY=0;exitDx=0;exitDy=0;entryX=0.5;entryY=1;entryDx=0;entryDy=0;endArrow=none;endFill=0;" edge="1" parent="1" source="mrRy50-UUVqDzoAHUifa-3" target="mrRy50-UUVqDzoAHUifa-22">
          <mxGeometry relative="1" as="geometry">
            <Array as="points">
              <mxPoint x="750" y="90" />
              <mxPoint x="705" y="90" />
            </Array>
          </mxGeometry>
        </mxCell>
        <mxCell id="mrRy50-UUVqDzoAHUifa-48" style="edgeStyle=orthogonalEdgeStyle;rounded=0;orthogonalLoop=1;jettySize=auto;html=1;exitX=0.5;exitY=0;exitDx=0;exitDy=0;entryX=0.5;entryY=1;entryDx=0;entryDy=0;endArrow=none;endFill=0;" edge="1" parent="1" source="mrRy50-UUVqDzoAHUifa-3" target="mrRy50-UUVqDzoAHUifa-24">
          <mxGeometry relative="1" as="geometry" />
        </mxCell>
        <mxCell id="mrRy50-UUVqDzoAHUifa-49" style="edgeStyle=orthogonalEdgeStyle;rounded=0;orthogonalLoop=1;jettySize=auto;html=1;exitX=0.25;exitY=0;exitDx=0;exitDy=0;entryX=0.5;entryY=1;entryDx=0;entryDy=0;endArrow=none;endFill=0;" edge="1" parent="1" source="mrRy50-UUVqDzoAHUifa-3" target="mrRy50-UUVqDzoAHUifa-25">
          <mxGeometry relative="1" as="geometry">
            <Array as="points">
              <mxPoint x="690" y="110" />
              <mxPoint x="545" y="110" />
            </Array>
          </mxGeometry>
        </mxCell>
        <mxCell id="mrRy50-UUVqDzoAHUifa-3" value="CreditCard" style="rounded=0;whiteSpace=wrap;html=1;" vertex="1" parent="1">
          <mxGeometry x="665" y="120" width="120" height="60" as="geometry" />
        </mxCell>
        <mxCell id="mrRy50-UUVqDzoAHUifa-41" style="edgeStyle=orthogonalEdgeStyle;rounded=0;orthogonalLoop=1;jettySize=auto;html=1;exitX=0;exitY=0;exitDx=0;exitDy=0;entryX=0.5;entryY=1;entryDx=0;entryDy=0;endArrow=none;endFill=0;" edge="1" parent="1" source="mrRy50-UUVqDzoAHUifa-4" target="mrRy50-UUVqDzoAHUifa-12">
          <mxGeometry relative="1" as="geometry" />
        </mxCell>
        <mxCell id="mrRy50-UUVqDzoAHUifa-42" style="edgeStyle=orthogonalEdgeStyle;rounded=0;orthogonalLoop=1;jettySize=auto;html=1;exitX=0.25;exitY=0;exitDx=0;exitDy=0;entryX=0.5;entryY=1;entryDx=0;entryDy=0;endArrow=none;endFill=0;" edge="1" parent="1" source="mrRy50-UUVqDzoAHUifa-4" target="mrRy50-UUVqDzoAHUifa-11">
          <mxGeometry relative="1" as="geometry" />
        </mxCell>
        <mxCell id="mrRy50-UUVqDzoAHUifa-43" style="edgeStyle=orthogonalEdgeStyle;rounded=0;orthogonalLoop=1;jettySize=auto;html=1;entryX=0.5;entryY=1;entryDx=0;entryDy=0;endArrow=none;endFill=0;" edge="1" parent="1">
          <mxGeometry relative="1" as="geometry">
            <mxPoint x="100" y="118" as="sourcePoint" />
            <mxPoint x="205" y="78" as="targetPoint" />
            <Array as="points">
              <mxPoint x="100" y="108" />
              <mxPoint x="205" y="108" />
            </Array>
          </mxGeometry>
        </mxCell>
        <mxCell id="mrRy50-UUVqDzoAHUifa-44" style="edgeStyle=orthogonalEdgeStyle;rounded=0;orthogonalLoop=1;jettySize=auto;html=1;exitX=0.75;exitY=0;exitDx=0;exitDy=0;entryX=0.5;entryY=1;entryDx=0;entryDy=0;endArrow=none;endFill=0;" edge="1" parent="1">
          <mxGeometry relative="1" as="geometry">
            <mxPoint x="130" y="124" as="sourcePoint" />
            <mxPoint x="285" y="84" as="targetPoint" />
            <Array as="points">
              <mxPoint x="130" y="114" />
              <mxPoint x="285" y="114" />
            </Array>
          </mxGeometry>
        </mxCell>
        <mxCell id="mrRy50-UUVqDzoAHUifa-45" style="edgeStyle=orthogonalEdgeStyle;rounded=0;orthogonalLoop=1;jettySize=auto;html=1;exitX=1;exitY=0;exitDx=0;exitDy=0;entryX=0.5;entryY=1;entryDx=0;entryDy=0;endArrow=none;endFill=0;" edge="1" parent="1" source="mrRy50-UUVqDzoAHUifa-4" target="mrRy50-UUVqDzoAHUifa-9">
          <mxGeometry relative="1" as="geometry">
            <Array as="points">
              <mxPoint x="365" y="120" />
            </Array>
          </mxGeometry>
        </mxCell>
        <mxCell id="mrRy50-UUVqDzoAHUifa-60" style="edgeStyle=orthogonalEdgeStyle;rounded=0;orthogonalLoop=1;jettySize=auto;html=1;entryX=0;entryY=0.5;entryDx=0;entryDy=0;endArrow=none;endFill=0;" edge="1" parent="1" source="mrRy50-UUVqDzoAHUifa-4" target="mrRy50-UUVqDzoAHUifa-26">
          <mxGeometry relative="1" as="geometry" />
        </mxCell>
        <mxCell id="mrRy50-UUVqDzoAHUifa-4" value="Customer" style="rounded=0;whiteSpace=wrap;html=1;" vertex="1" parent="1">
          <mxGeometry x="45" y="120" width="120" height="60" as="geometry" />
        </mxCell>
        <mxCell id="mrRy50-UUVqDzoAHUifa-56" style="edgeStyle=orthogonalEdgeStyle;rounded=0;orthogonalLoop=1;jettySize=auto;html=1;exitX=0.5;exitY=1;exitDx=0;exitDy=0;entryX=0.5;entryY=0;entryDx=0;entryDy=0;endArrow=none;endFill=0;" edge="1" parent="1" source="mrRy50-UUVqDzoAHUifa-94">
          <mxGeometry relative="1" as="geometry">
            <mxPoint x="740" y="444" as="sourcePoint" />
            <mxPoint x="645" y="484" as="targetPoint" />
            <Array as="points">
              <mxPoint x="645" y="454" />
            </Array>
          </mxGeometry>
        </mxCell>
        <mxCell id="mrRy50-UUVqDzoAHUifa-57" style="edgeStyle=orthogonalEdgeStyle;rounded=0;orthogonalLoop=1;jettySize=auto;html=1;exitX=0.25;exitY=1;exitDx=0;exitDy=0;entryX=0.5;entryY=0;entryDx=0;entryDy=0;endArrow=none;endFill=0;" edge="1" parent="1">
          <mxGeometry relative="1" as="geometry">
            <mxPoint x="710" y="437" as="sourcePoint" />
            <mxPoint x="565" y="477" as="targetPoint" />
            <Array as="points">
              <mxPoint x="710" y="447" />
              <mxPoint x="565" y="447" />
            </Array>
          </mxGeometry>
        </mxCell>
        <mxCell id="mrRy50-UUVqDzoAHUifa-8" value="FullName" style="ellipse;whiteSpace=wrap;html=1;" vertex="1" parent="1">
          <mxGeometry x="170" y="40" width="70" height="40" as="geometry" />
        </mxCell>
        <mxCell id="mrRy50-UUVqDzoAHUifa-9" value="PhoneNum" style="ellipse;whiteSpace=wrap;html=1;" vertex="1" parent="1">
          <mxGeometry x="330" y="40" width="70" height="40" as="geometry" />
        </mxCell>
        <mxCell id="mrRy50-UUVqDzoAHUifa-10" value="Address" style="ellipse;whiteSpace=wrap;html=1;" vertex="1" parent="1">
          <mxGeometry x="250" y="40" width="70" height="40" as="geometry" />
        </mxCell>
        <mxCell id="mrRy50-UUVqDzoAHUifa-11" value="Email" style="ellipse;whiteSpace=wrap;html=1;" vertex="1" parent="1">
          <mxGeometry x="90" y="40" width="70" height="40" as="geometry" />
        </mxCell>
        <mxCell id="mrRy50-UUVqDzoAHUifa-12" value="&lt;u&gt;cID&lt;/u&gt;" style="ellipse;whiteSpace=wrap;html=1;" vertex="1" parent="1">
          <mxGeometry x="10" y="40" width="70" height="40" as="geometry" />
        </mxCell>
        <mxCell id="mrRy50-UUVqDzoAHUifa-13" value="Desc" style="ellipse;whiteSpace=wrap;html=1;" vertex="1" parent="1">
          <mxGeometry x="170" y="480" width="70" height="40" as="geometry" />
        </mxCell>
        <mxCell id="mrRy50-UUVqDzoAHUifa-15" value="Seller" style="ellipse;whiteSpace=wrap;html=1;" vertex="1" parent="1">
          <mxGeometry x="250" y="480" width="70" height="40" as="geometry" />
        </mxCell>
        <mxCell id="mrRy50-UUVqDzoAHUifa-16" value="Name" style="ellipse;whiteSpace=wrap;html=1;" vertex="1" parent="1">
          <mxGeometry x="90" y="480" width="70" height="40" as="geometry" />
        </mxCell>
        <mxCell id="mrRy50-UUVqDzoAHUifa-17" value="&lt;u&gt;prID&lt;/u&gt;" style="ellipse;whiteSpace=wrap;html=1;" vertex="1" parent="1">
          <mxGeometry x="10" y="480" width="70" height="40" as="geometry" />
        </mxCell>
        <mxCell id="mrRy50-UUVqDzoAHUifa-18" value="Desc" style="ellipse;whiteSpace=wrap;html=1;" vertex="1" parent="1">
          <mxGeometry x="690" y="480" width="70" height="40" as="geometry" />
        </mxCell>
        <mxCell id="mrRy50-UUVqDzoAHUifa-20" value="Date" style="ellipse;whiteSpace=wrap;html=1;" vertex="1" parent="1">
          <mxGeometry x="610" y="480" width="70" height="40" as="geometry" />
        </mxCell>
        <mxCell id="mrRy50-UUVqDzoAHUifa-21" value="&lt;u&gt;puID&lt;/u&gt;" style="ellipse;whiteSpace=wrap;html=1;" vertex="1" parent="1">
          <mxGeometry x="530" y="480" width="70" height="40" as="geometry" />
        </mxCell>
        <mxCell id="mrRy50-UUVqDzoAHUifa-22" value="Exp" style="ellipse;whiteSpace=wrap;html=1;" vertex="1" parent="1">
          <mxGeometry x="670" y="40" width="70" height="40" as="geometry" />
        </mxCell>
        <mxCell id="mrRy50-UUVqDzoAHUifa-23" value="CVV" style="ellipse;whiteSpace=wrap;html=1;" vertex="1" parent="1">
          <mxGeometry x="750" y="40" width="70" height="40" as="geometry" />
        </mxCell>
        <mxCell id="mrRy50-UUVqDzoAHUifa-24" value="Digits" style="ellipse;whiteSpace=wrap;html=1;" vertex="1" parent="1">
          <mxGeometry x="590" y="40" width="70" height="40" as="geometry" />
        </mxCell>
        <mxCell id="mrRy50-UUVqDzoAHUifa-25" value="&lt;u&gt;crID&lt;/u&gt;" style="ellipse;whiteSpace=wrap;html=1;" vertex="1" parent="1">
          <mxGeometry x="510" y="40" width="70" height="40" as="geometry" />
        </mxCell>
        <mxCell id="mrRy50-UUVqDzoAHUifa-61" style="edgeStyle=orthogonalEdgeStyle;rounded=0;orthogonalLoop=1;jettySize=auto;html=1;entryX=0;entryY=0.5;entryDx=0;entryDy=0;endArrow=none;endFill=0;shape=link;" edge="1" parent="1" source="mrRy50-UUVqDzoAHUifa-26" target="mrRy50-UUVqDzoAHUifa-3">
          <mxGeometry relative="1" as="geometry" />
        </mxCell>
        <mxCell id="mrRy50-UUVqDzoAHUifa-26" value="PaysWith" style="rhombus;whiteSpace=wrap;html=1;" vertex="1" parent="1">
          <mxGeometry x="380" y="110" width="80" height="80" as="geometry" />
        </mxCell>
        <mxCell id="mrRy50-UUVqDzoAHUifa-50" style="edgeStyle=orthogonalEdgeStyle;rounded=0;orthogonalLoop=1;jettySize=auto;html=1;exitX=0;exitY=1;exitDx=0;exitDy=0;entryX=0.414;entryY=0.05;entryDx=0;entryDy=0;entryPerimeter=0;endArrow=none;endFill=0;" edge="1" parent="1" source="mrRy50-UUVqDzoAHUifa-1" target="mrRy50-UUVqDzoAHUifa-17">
          <mxGeometry relative="1" as="geometry" />
        </mxCell>
        <mxCell id="mrRy50-UUVqDzoAHUifa-67" value="" style="endArrow=none;html=1;rounded=0;entryX=1;entryY=1;entryDx=0;entryDy=0;exitX=0;exitY=0;exitDx=0;exitDy=0;" edge="1" parent="1" source="mrRy50-UUVqDzoAHUifa-94" target="mrRy50-UUVqDzoAHUifa-4">
          <mxGeometry width="50" height="50" relative="1" as="geometry">
            <mxPoint x="200" y="210" as="sourcePoint" />
            <mxPoint x="330" y="360" as="targetPoint" />
          </mxGeometry>
        </mxCell>
        <mxCell id="mrRy50-UUVqDzoAHUifa-97" style="edgeStyle=orthogonalEdgeStyle;rounded=0;orthogonalLoop=1;jettySize=auto;html=1;entryX=0.5;entryY=0;entryDx=0;entryDy=0;endArrow=none;endFill=0;" edge="1" parent="1" source="mrRy50-UUVqDzoAHUifa-69" target="mrRy50-UUVqDzoAHUifa-94">
          <mxGeometry relative="1" as="geometry" />
        </mxCell>
        <mxCell id="mrRy50-UUVqDzoAHUifa-69" value="" style="rounded=0;whiteSpace=wrap;html=1;fillColor=none;" vertex="1" parent="1">
          <mxGeometry x="670" y="125" width="110" height="50" as="geometry" />
        </mxCell>
        <mxCell id="mrRy50-UUVqDzoAHUifa-72" value="" style="triangle;whiteSpace=wrap;html=1;rotation=-180;" vertex="1" parent="1">
          <mxGeometry x="645" y="140" width="20" height="20" as="geometry" />
        </mxCell>
        <mxCell id="mrRy50-UUVqDzoAHUifa-95" value="" style="edgeStyle=orthogonalEdgeStyle;rounded=0;orthogonalLoop=1;jettySize=auto;html=1;exitX=0.5;exitY=1;exitDx=0;exitDy=0;entryX=0.5;entryY=0;entryDx=0;entryDy=0;endArrow=none;endFill=0;" edge="1" parent="1" target="mrRy50-UUVqDzoAHUifa-94">
          <mxGeometry relative="1" as="geometry">
            <mxPoint x="740" y="444" as="sourcePoint" />
            <mxPoint x="645" y="484" as="targetPoint" />
            <Array as="points">
              <mxPoint x="710" y="444" />
              <mxPoint x="710" y="454" />
            </Array>
          </mxGeometry>
        </mxCell>
        <mxCell id="mrRy50-UUVqDzoAHUifa-96" style="edgeStyle=orthogonalEdgeStyle;rounded=0;orthogonalLoop=1;jettySize=auto;html=1;entryX=1;entryY=0.5;entryDx=0;entryDy=0;endArrow=none;endFill=0;" edge="1" parent="1" source="mrRy50-UUVqDzoAHUifa-94" target="mrRy50-UUVqDzoAHUifa-1">
          <mxGeometry relative="1" as="geometry" />
        </mxCell>
        <mxCell id="mrRy50-UUVqDzoAHUifa-94" value="Purchase" style="rhombus;whiteSpace=wrap;html=1;" vertex="1" parent="1">
          <mxGeometry x="685" y="390" width="80" height="80" as="geometry" />
        </mxCell>
        <mxCell id="mrRy50-UUVqDzoAHUifa-83" value="" style="triangle;whiteSpace=wrap;html=1;rotation=3;" vertex="1" parent="1">
          <mxGeometry x="160" y="420" width="20" height="20" as="geometry" />
        </mxCell>
        <mxCell id="mrRy50-UUVqDzoAHUifa-99" value="" style="endArrow=none;html=1;rounded=0;entryX=0.5;entryY=1;entryDx=0;entryDy=0;exitX=0.5;exitY=0;exitDx=0;exitDy=0;" edge="1" parent="1" source="mrRy50-UUVqDzoAHUifa-18" target="mrRy50-UUVqDzoAHUifa-94">
          <mxGeometry width="50" height="50" relative="1" as="geometry">
            <mxPoint x="280" y="340" as="sourcePoint" />
            <mxPoint x="330" y="290" as="targetPoint" />
          </mxGeometry>
        </mxCell>
        <mxCell id="mrRy50-UUVqDzoAHUifa-100" value="" style="triangle;whiteSpace=wrap;html=1;rotation=-135;" vertex="1" parent="1">
          <mxGeometry x="681.9996549099752" y="397.9996549099752" width="20" height="20" as="geometry" />
        </mxCell>
      </root>
    </mxGraphModel>
  </diagram>
</mxfile>
